<mxfile host="65bd71144e">
    <diagram id="XqDgzbi-A9tlqecT09Ke" name="Page-1">
        <mxGraphModel dx="1261" dy="357" grid="1" gridSize="10" guides="1" tooltips="1" connect="1" arrows="1" fold="1" page="1" pageScale="1" pageWidth="827" pageHeight="1169" background="#FFFFFF" math="0" shadow="0">
            <root>
                <mxCell id="0"/>
                <mxCell id="1" parent="0"/>
                <mxCell id="2" value="Movie Age Requirements" style="swimlane;startSize=30;fontSize=13;" parent="1" vertex="1">
                    <mxGeometry y="20" width="330" height="270" as="geometry"/>
                </mxCell>
                <mxCell id="3" value="17yrs or older" style="text;html=1;strokeColor=none;fillColor=none;align=center;verticalAlign=middle;whiteSpace=wrap;rounded=0;fontSize=13;" vertex="1" parent="2">
                    <mxGeometry x="-10" y="30" width="160" height="30" as="geometry"/>
                </mxCell>
                <mxCell id="5" value="13-16yrs old" style="text;html=1;strokeColor=none;fillColor=none;align=center;verticalAlign=middle;whiteSpace=wrap;rounded=0;fontSize=13;" vertex="1" parent="2">
                    <mxGeometry x="10" y="60" width="120" height="30" as="geometry"/>
                </mxCell>
                <mxCell id="6" value="5-12yrs old" style="text;html=1;strokeColor=none;fillColor=none;align=center;verticalAlign=middle;whiteSpace=wrap;rounded=0;fontSize=13;" vertex="1" parent="2">
                    <mxGeometry x="15" y="90" width="110" height="30" as="geometry"/>
                </mxCell>
                <mxCell id="7" value="5yrs old or younger" style="text;html=1;strokeColor=none;fillColor=none;align=center;verticalAlign=middle;whiteSpace=wrap;rounded=0;fontSize=13;" vertex="1" parent="2">
                    <mxGeometry x="20" y="120" width="140" height="30" as="geometry"/>
                </mxCell>
                <mxCell id="8" value="" style="ellipse;whiteSpace=wrap;html=1;aspect=fixed;fontSize=13;fillColor=#99CCFF;strokeColor=#6c8ebf;" vertex="1" parent="2">
                    <mxGeometry x="5" y="40" width="10" height="10" as="geometry"/>
                </mxCell>
                <mxCell id="9" value="" style="ellipse;whiteSpace=wrap;html=1;aspect=fixed;fontSize=13;" vertex="1" parent="2">
                    <mxGeometry x="5" y="70" width="10" height="10" as="geometry"/>
                </mxCell>
                <mxCell id="10" value="" style="ellipse;whiteSpace=wrap;html=1;aspect=fixed;fontSize=13;" vertex="1" parent="2">
                    <mxGeometry x="5" y="100" width="10" height="10" as="geometry"/>
                </mxCell>
                <mxCell id="11" value="" style="ellipse;whiteSpace=wrap;html=1;aspect=fixed;fontSize=13;" vertex="1" parent="2">
                    <mxGeometry x="5" y="130" width="10" height="10" as="geometry"/>
                </mxCell>
                <mxCell id="12" value="&lt;font style=&quot;font-size: 16px&quot;&gt;Identify&lt;/font&gt;" style="rounded=1;whiteSpace=wrap;html=1;fontSize=13;" vertex="1" parent="2">
                    <mxGeometry x="5" y="150" width="110" height="30" as="geometry"/>
                </mxCell>
                <mxCell id="13" value="&lt;font style=&quot;font-size: 11px&quot;&gt;You can watch a R-rated movie alone.&lt;/font&gt;" style="text;html=1;strokeColor=none;fillColor=none;align=center;verticalAlign=middle;whiteSpace=wrap;rounded=0;fontSize=16;" vertex="1" parent="2">
                    <mxGeometry x="-50" y="180" width="305" height="30" as="geometry"/>
                </mxCell>
            </root>
        </mxGraphModel>
    </diagram>
</mxfile>